<?xml version="1.0" standalone="no"?>
<!DOCTYPE svg PUBLIC "-//W3C//DTD SVG 20010904//EN"
 "http://www.w3.org/TR/2001/REC-SVG-20010904/DTD/svg10.dtd">
<svg version="1.0" xmlns="http://www.w3.org/2000/svg"
 width="100.000000pt" height="100.000000pt" viewBox="0 0 100.000000 100.000000"
 preserveAspectRatio="xMidYMid meet">
<metadata>
Created by potrace 1.14, written by Peter Selinger 2001-2017
</metadata>
<g transform="translate(0.000000,100.000000) scale(0.100000,-0.100000)"
fill="#000000" stroke="none">
<path d="M0 500 l0 -500 500 0 500 0 0 500 0 500 -500 0 -500 0 0 -500z m245
381 c-45 -29 -81 -62 -115 -105 l-30 -39 0 82 0 81 88 0 87 0 -30 -19z m655
-73 l0 -93 -20 32 c-10 18 -38 51 -60 73 -22 22 -55 50 -73 60 l-32 20 93 0
92 0 0 -92z m-482 -46 c-24 -42 -86 -155 -138 -251 l-95 -174 -18 43 c-25 56
-25 169 -1 231 26 67 71 128 121 163 51 36 118 65 151 65 21 1 21 -2 -20 -77z
m199 60 c138 -56 223 -179 225 -322 0 -67 -16 -140 -31 -140 -5 0 -57 89 -116
198 -59 108 -119 216 -132 240 -23 39 -23 42 -6 41 10 0 37 -8 60 -17z m-37
-288 c41 -75 76 -140 78 -145 2 -5 -68 -9 -158 -9 -90 0 -160 4 -158 9 9 24
153 281 158 281 3 0 39 -61 80 -136z m152 -293 c-137 -124 -337 -124 -474 0
l-43 38 280 0 280 0 -43 -38z m168 -56 l0 -85 -81 0 -82 0 43 34 c43 34 110
112 110 127 0 5 2 9 5 9 3 0 5 -38 5 -85z m-690 -51 l43 -34 -77 0 -76 0 0 76
0 77 34 -43 c18 -23 53 -58 76 -76z"/>
</g>
</svg>
